<?xml version="1.0" encoding="UTF-8"?>
<svg id="Layer_1" data-name="Layer 1" xmlns="http://www.w3.org/2000/svg" viewBox="0 0 250 250">
  <defs>
    <style>
      .cls-1 {
        fill: #fff;
      }

      .cls-2 {
        fill: #f2f1ee;
      }
    </style>
  </defs>
  <g>
    <path class="cls-1" d="M125,243c-65.07,0-118-52.93-118-118S59.93,7,125,7s118,52.93,118,118-52.93,118-118,118Z"/>
    <path class="cls-2" d="M125,14c29.65,0,57.52,11.55,78.49,32.51,20.97,20.97,32.51,48.84,32.51,78.49s-11.55,57.52-32.51,78.49-48.84,32.51-78.49,32.51-57.52-11.55-78.49-32.51c-20.97-20.97-32.51-48.84-32.51-78.49s11.55-57.52,32.51-78.49C67.48,25.55,95.35,14,125,14M125,0C55.96,0,0,55.96,0,125s55.96,125,125,125,125-55.96,125-125S194.04,0,125,0h0Z"/>
  </g>
  <circle class="cls-2" cx="125" cy="77.25" r="47.75"/>
  <path class="cls-2" d="M208.83,215.48c-3.23-55.33-39.52-98.95-83.8-98.95s-81.01,44.15-83.85,99.97"/>
  <path class="cls-2" d="M53.12,192.19c2.78,32.33,34.01,57.81,72.13,57.81s69.73-25.79,72.18-58.4"/>
</svg>